<?xml version="1.0" encoding="utf-8"?>
<!-- Generator: Adobe Illustrator 18.0.0, SVG Export Plug-In . SVG Version: 6.00 Build 0)  -->
<!DOCTYPE svg PUBLIC "-//W3C//DTD SVG 1.1//EN" "http://www.w3.org/Graphics/SVG/1.1/DTD/svg11.dtd">
<svg version="1.1" id="Capa_1" xmlns="http://www.w3.org/2000/svg" xmlns:xlink="http://www.w3.org/1999/xlink" x="0px" y="0px"
	 viewBox="0 0 1000 1000" enable-background="new 0 0 1000 1000" xml:space="preserve">
<g>
	<path fill="#003460" d="M328,907.5c-13-53.1-15.6-106.8-9.9-161c0.6-5.8-0.3-10.6-3.1-15.7c-19.3-35.1-28.9-72.9-28.3-113
		c0.1-9.4-2.2-12.3-11.7-13.8c-58.7-9-95.2-63.6-82.9-122.9c6.6-31.9,24.4-48.3,67.4-61.6c-8.6-14-17.4-27.7-25.7-41.8
		c-2.9-5-7.2-4.3-11.4-4.8c-56.3-6.7-66.7-17.8-72.4-75.8c-1.8-18-2.1-35.9-0.2-54c3.2-31.3,17.5-53.7,47.9-62.1
		c15.7-4.3,23.5-13.5,31-27.7C253,106.7,293.8,78.9,341.2,62c112.2-40.1,223.6-38.7,332.3,13.3c40.1,19.2,72.1,48.5,89.8,91.3
		c2.5,6,6.4,8.1,11.6,10.1c11.2,4.2,22.4,8.4,33.2,13.5c18.9,9,23.4,27.5,26.5,45.9c5.6,33.7,1.9,66.8-6.6,99.7
		c-4,15.6-13.2,25.2-28.2,29.5c-3.3,0.9-6.6,2.9-9.9,2.8c-29-0.9-45.5,15.6-57.8,40.2c-6.2,12.4-16.5,22.5-27,31.6
		c-6.9,6-6.6,10.1-1.2,17.2c20,26.1,38.3,53.3,50.5,84.3c8.6,21.9,12.4,44.5,5.6,67.6c-8.4,28.5-27.7,45.6-55.8,51.9
		c-7.5,1.7-10.2,4.4-11.8,11.9c-4.4,20.6-11.5,40.4-22.3,58.5c-2.7,4.5-3.6,9-3,14.3c6.2,54.7,3,108.7-9.9,162.2
		c-2.6,19.5-16.2,26.3-32.7,30.9c-29.1,8.1-58,7.9-87.3,1.8c-10-2.1-13.5-7-14.6-16.8c-1.3-11.3-1.6-22.8-6.1-33.6
		c-2.3-18.4-7.6-36.2-11.9-54.2c-1.8-7.7-6.5-7.5-12.1-7.4c-5.5,0-9.9-0.3-11.9,7.5c-5.3,21.8-11.2,43.5-14.1,65.9
		c-1.3,6.9-3.6,13.7-3.7,20.6c-0.2,11.7-5.8,16.4-16.4,18.5c-27.8,5.4-55.3,5.6-82.9-1.6C346.1,934.7,331.3,928.1,328,907.5z
		 M637.8,421.5c-3.3,0-6.9-0.7-9.4,2.5c-5.7,1.3-11.3,2.8-17,4c-56.5,11.7-113.7,10-170.7,7.8c-12.9-0.5-20.1,3.4-24.3,15.1
		c-7.3,8.8-13,18.6-18.4,29.1c2.3,1,4,2.1,5.8,2.6c52.3,14.3,105.2,13.7,158,4.3c131.9-23.6,211.2-132.8,193.3-266
		c-3.8-28.2-11.2-55.8-32.6-76.7c-21.9-32.8-55.6-49.6-90-61.7c-103.7-36.6-207-34.5-307.9,11.9c-24.2,11.1-46,26.7-61.8,49.4
		c-7,4.5-10.1,12.1-13.9,19c-38.9,72.1-23.5,186.6,32.9,246c1.7,1.7,3.2,4,6,2c2.1-15.7,0-29.5-8.8-43.9
		c-18-29.3-19.9-63.4-22.8-96.9c-1.4-37.2,3.9-72.7,25.8-103.8c1.5-2.2,0.8-5.3,4.5-6.8c21.7-8.6,43.1-17.7,66.2-22.4
		c37.5-7.5,75.4-9.4,113.2-12.3c17.8-0.1,35.6-0.2,53.4-0.2c23.6,2.4,47.1,5,70.7,7c29.6,2.4,58.4,8,86.3,18.5
		c17.8,6.7,30.6,19,39,36.6c11.6,24.6,14.3,50.7,14.1,77.5c-0.4,7-0.8,13.9-1.3,20.9c-4.8,62.1-24.7,114.1-88.5,136.3
		C638.9,421,638.3,421.2,637.8,421.5z M500.8,668.2c-5.7-4-11.3-4-16.8,0.3c-9.5,7.9-10.1,16.9-1.5,25.4c6.6,6.5,15.2,6.1,21.1-0.5
		C511.3,684.8,511.3,675.5,500.8,668.2z M327,331.1c-12.2-1.6-16.5,4.9-16.8,16.4c-0.5,19.4-1.6,38.8-2.1,58.2
		c-0.1,4.7-1.7,10.2,3.9,13.3c11.1,8.7,19.6,19.7,26.8,35.7c1.6-38,2.4-72.3,4.7-106.5C344.3,334.4,339.5,329.7,327,331.1z
		 M421.1,376.6c-5.4-2.8-10-10.6-17-2.1c-19.4,23.3-38.1,47-47.5,76.7c-4,3.7-3.3,8.8-4.2,13.7c7.4,1.3,15-0.3,21.4,4.2
		c5,3.4,6.9-0.4,9-3.8c14.7-23.4,29.3-46.9,44-70.3C432.1,386.5,431.4,380,421.1,376.6z M194.2,342.8c8.1,4.8,16.8,6.7,27,5
		c-14.1-38.3-17.5-77.2-14.6-116.9c0.6-7.9,2.4-15.8,3-23.7c0.5-6.7-2.6-6.6-6.8-2.8c-17.1,2.9-26.1,13.4-29,30.7
		c-5.5,32.6-3.4,64.5,5.8,96.1C182,339.1,186.2,343,194.2,342.8z M794,342.5c7.9-2.2,11.2-8.1,13.1-15.7c7.7-30.3,9.8-60.8,4.4-91.8
		c-3.1-17.3-12-27.7-29.2-30.4c-7.3-1.2-7.3-1.2-5.9,8.4c5.5,37.3,4.3,74.3-4.8,111c-2,7.9-9.5,19.5-4.9,23
		C774.1,352.6,784.9,345.7,794,342.5z M368.8,715.7l0.3,0.2c-5.7-39.8-14.7-79.2-11.9-123.1c-13.5,8.6-26.6,10-39.3,11.6
		c-9,1.2-8.8,5.8-8,12.1c-5.4,79.1,49.3,152.2,85.7,161.1c-4.5-9.8-9.1-19.1-13-28.8c-4.1-10.1-7.5-20.5-11.2-30.8
		C371.1,716.6,371.4,714.5,368.8,715.7z M714.5,631.7c14.1-6.3,21.6-18.2,24.7-32.9c3.7-17.7,0.5-34.8-6.6-51.2
		c-11.7-27.2-27.7-51.7-45.7-74.9c-4.6-11.4-10.6-9.2-19.1-3.4c-7.6,5.2-8.9,8.6-4,17.1c24.4,42.4,35.6,88.5,34.9,137.6
		c-0.1,4.3-2.7,10.3,1.5,12.5C705.3,639.1,710.5,635.7,714.5,631.7z M578,745.9c2-0.4,2.5-1.7,2-3.6c10.1-21.4,16.3-43.9,19.3-69
		c-21.3,8-40.6,13.7-60.5,16.9c-5.7,0.9-9.1,3.4-12.2,8.8c-16.9,29-50.8,29.2-67.7,0.5c-2.6-4.5-4.8-8-10.4-8.8
		c-20.8-3.2-40.9-9.5-62.6-17c4,26.1,9.3,50.1,21.2,72.3c3.8,15.9,13.7,28.4,22.1,41.9c5.1,8.3,11.9,12.2,21.2,14
		c28.8,5.5,57.4,5.6,86.1-0.4c5.2-1.1,10.8-1.8,14.4-6.6c11.2-15.1,22.7-30,27.2-48.9L578,745.9z M418.5,920.8
		c21.2,0.1,21,0,25-20.5c3.6-18.2,7.3-36.3,11.5-54.3c4.4-19,4.7-19.2-13.5-22.9c-34-6.8-63-24.1-90.6-44.3
		c-3.2-3.5-6.5-6.9-10.2-10.9c-6.5,32.6,0,112.2,10.7,138.3c1.7,4.1,4.1,6.6,8.1,7.8C378.8,919.9,398.1,924.9,418.5,920.8z
		 M627.9,784.4c-29.6,19.6-60.4,36.4-96.3,40.8c-8,1-5.1,6.2-3.9,11.2c4.9,21.3,9.7,42.7,14.1,64.1c4.2,20.5,3.9,20.5,25.3,20.3
		c18.8,3.5,36.9-0.2,55-5.4c7.6-2.2,11-6.6,13.1-14.2c5-17.4,8.4-35.1,9.9-53c2.2-26.4,4.5-52.9,0.2-80.6
		C638.6,774.1,633.3,779.2,627.9,784.4z M625.6,493.6c-1.5,0.1-3-0.3-4.3,0.2c-61.1,23-124.1,25.4-188,17.7
		c-20-2.4-20-2.4-19.7,18.3c-6.2,21.1-6.1,20.7,16,24.3c61.7,9.9,122.4,4.4,182.4-11.5c10.5-2.8,14.1-0.9,14.3,10.2
		c0.2,15,1.8,30,2.3,45c1.3,37.7-4.7,74.7-12,111.5c-8,23.2-15,46.8-28,70c59.1-22.2,102.2-124.9,84.5-196.5
		c-3.1-30.2-14.3-57.5-27.6-84.3C640,487.7,634.2,486.6,625.6,493.6z M342,523.6c-2.3-4.6-4.7-9.2-7.2-14.2
		c-18.1,20.8-40.8,22.4-64.2,18.7c-18.9-3-26.2-12-29.4-31.9c1.7-6.9,2.8-9.8,7.8-1.1c9.7,16.8,38.8,22.1,59.5,11.9
		c13.1-6.4,17-22.7,10.6-43.9c-5.8-19.3-13.6-25.1-33.2-24.4c-17.5,0.6-33.5,6.3-48.7,14.9c-13,7.4-20.2,18.5-23.3,32.9
		c-7.2,34.1,11.4,73.9,43,87.1c41.6,17.3,81.6,11,115.8-18.3c27.3-23.4,28.9-40.6-3-65.3c-14.2-7.4-20.9-4.2-21.6,11.1
		c-0.4,8.3,0.6,16.7,0.9,25C345.9,527.2,344,525.4,342,523.6z M605.3,608.4c0-10-0.2-20,0.1-30c0.2-7.9-2.1-10.1-10.4-8.2
		c-21.8,5-43.9,8.8-66.3,10.3c-43.8,2.9-87.3,0.4-130.4-8.4c-11.3-2.3-18.4,2.6-18.4,14.8c0,17.5,1,35,1.1,52.6
		c0,6.4,3.6,8.5,8.5,10.5c17.3,7.1,35.3,12,53.4,16.5c8.6,2.2,13.6,0.8,19.1-7.6c14-21.2,45.2-23.2,59.2-2.7
		c8.5,12.4,16.5,12.6,28,8.6c5.6-1.9,11.4-2.9,17.1-4.5C604.6,649.2,604.6,649.1,605.3,608.4z M389.3,281.5
		c0.8-11.5-2.1-24-8.1-35.8c-4.3-8.5-10-15.1-20.4-14.4c-11.3,0.8-17.1,8.6-20.9,18.3c-1.6,4.1-2.8,8.7-2.9,13.1
		c-0.1,21.3-9.2,45.7,18.1,58.4c2,0.9,3.5,3.6,4.6,5.8c4.7,10.1,10,7.2,15.6,1.1C386.7,315.3,389.3,299.7,389.3,281.5z M666.5,290.4
		c0.3-24.6-18.5-42.2-45.5-42.9c-23.4-0.7-49.3,20.5-50,40.7c-0.2,5.9,2.3,10,7.3,11.6c6.7,2.1,11.6-1.5,13.7-7.9
		c5.1-15.5,15.5-22.5,31.2-21.4c13.9,1,20.6,9.9,23,23c1.3,7.3,6.2,10.2,12.8,8.9C665.6,301.2,667.3,296.1,666.5,290.4z"/>
	<path fill="#F6F9FA" d="M729.3,263.9c0.2-26.7-2.5-52.9-14.1-77.5c-8.3-17.6-21.1-29.9-39-36.6c-27.8-10.5-56.7-16-86.3-18.5
		c-23.6-1.9-47.1-4.6-70.7-7c-17.8-2.5-35.6-2.9-53.4,0.2c-37.9,2.9-75.8,4.8-113.2,12.3c-23.1,4.6-44.5,13.7-66.2,22.4
		c-3.7,1.5-2.9,4.6-4.5,6.8c-21.9,31.1-27.2,66.6-25.8,103.8c-4.9,0-4.7-3.9-5.4-7.3c-5.2-25.4-0.7-50.5,1.5-75.8
		c1.3-15.2,11.9-27.5,10.5-43.1c15.8-22.7,37.7-38.3,61.8-49.4c100.9-46.5,204.3-48.6,307.9-11.9c34.4,12.2,68.1,28.9,90,61.7
		c0,9.1,3.7,17.3,6.1,25.9c8.4,30.5,11.3,61.3,6,92.8C733.5,269.7,731.7,266.7,729.3,263.9z"/>
	<path fill="#F6F9FA" d="M605.3,608.4c-0.7,40.7-0.7,40.8-39.1,51.9c-5.7,1.6-11.5,2.6-17.1,4.5c-11.5,4-19.5,3.8-28-8.6
		c-14-20.5-45.2-18.5-59.2,2.7c-5.5,8.3-10.5,9.7-19.1,7.6c-18.1-4.6-36.1-9.4-53.4-16.5c-4.9-2-8.4-4.1-8.5-10.5
		c-0.1-17.5-1.1-35-1.1-52.6c0-12.2,7.1-17.1,18.4-14.8c43.1,8.8,86.5,11.3,130.4,8.4c22.4-1.5,44.5-5.3,66.3-10.3
		c8.3-1.9,10.6,0.4,10.4,8.2C605.1,588.4,605.3,598.4,605.3,608.4z"/>
	<path fill="#F6F9FA" d="M369.6,489.8c31.9,24.7,30.3,41.9,3,65.3c-34.2,29.4-74.1,35.7-115.8,18.3c-31.6-13.1-50.1-52.9-43-87.1
		c3-14.4,10.3-25.5,23.3-32.9c15.3-8.6,31.2-14.3,48.7-14.9c19.6-0.7,27.4,5.1,33.2,24.4c6.4,21.2,2.5,37.5-10.6,43.9
		c-20.7,10.2-49.7,4.9-59.5-11.9c-5-8.7-6.1-5.7-7.8,1.1c-8.9,13-3,23.8,5.4,33.5c23.5,27.2,71.4,24,95.4-6.1
		c1.9,1.8,3.9,3.6,6.8,2.3c5.6-4.2,4.6-11.4,7.6-16.9C360.2,502.2,360.4,492.8,369.6,489.8z"/>
	<path fill="#F6F9FA" d="M407.1,745.9c-11.9-22.2-17.2-46.2-21.2-72.3c21.7,7.5,41.8,13.9,62.6,17c5.6,0.9,7.8,4.3,10.4,8.8
		c16.9,28.7,50.8,28.5,67.7-0.5c3.1-5.4,6.5-7.9,12.2-8.8c19.9-3.2,39.2-8.8,60.5-16.9c-3,25.1-9.2,47.6-19.3,69
		c-1.6,0.7-2.5,1.7-2,3.6l0-0.1c-11.1-3.9-17.7,6.6-27,8.6c-44.2,9.3-88.1,11.1-131.2-5.7C415.8,747.2,411.3,746.8,407.1,745.9z"/>
	<path fill="#F6F9FA" d="M616.5,709.3c7.3-36.8,13.3-73.7,12-111.5c-0.5-15-2.1-30-2.3-45c-0.2-11.1-3.8-13-14.3-10.2
		c-60,15.9-120.8,21.4-182.4,11.5c-22.1-3.6-22.2-3.2-16-24.3c2.4,0.2,5,0,7.2,0.8c55.5,17.8,110.2,15.7,163.8-7.7
		c15.6-6.8,31-14.3,41.1-29.2c8.6-6.9,14.4-5.9,19.8,4.9c13.3,26.8,24.5,54.1,27.6,84.3C667.3,631.1,653.5,675.6,616.5,709.3z"/>
	<path fill="#F6F9FA" d="M627.9,784.4c5.3-5.1,10.6-10.3,17.3-16.7c4.4,27.7,2.1,54.2-0.2,80.6c-1.5,17.9-4.9,35.6-9.9,53
		c-2.2,7.5-5.6,12-13.1,14.2c-18.1,5.2-36.1,8.9-55,5.4c0.9-18.3,1.1-36.7,2.8-54.9c1.6-17.2,7.2-32.1,22.8-42.7
		c11.5-7.9,24.1-15.2,32.8-27C627.9,792.7,635,790,627.9,784.4z"/>
	<path fill="#F6F9FA" d="M418.5,920.8c-20.4,4.1-39.7-0.9-59-6.9c-4-1.2-6.4-3.7-8.1-7.8c-10.7-26.1-17.3-105.7-10.7-138.3
		c3.7,4,7,7.4,10.2,10.9c-1.5,6.3,2.3,10.3,6,14.4c10.9,12.3,23.9,22,36.8,32c12.2,9.5,20.8,21.3,21.8,37.4
		C416.8,881.9,417.5,901.4,418.5,920.8z"/>
	<path fill="#E9BF43" d="M389.3,281.5c0,18.2-2.5,33.8-14,46.4c-5.5,6.1-10.9,9.1-15.6-1.1c-1-2.2-2.6-4.8-4.6-5.8
		c-27.3-12.7-18.2-37-18.1-58.4c0-4.4,1.3-9,2.9-13.1c3.8-9.7,9.6-17.6,20.9-18.3c10.4-0.7,16.1,5.9,20.4,14.4
		C387.2,257.5,390.1,270,389.3,281.5z"/>
	<path fill="#F6F9FA" d="M637.2,424c-33,24.3-71.3,32.1-110.6,35.2c-32.3,2.5-64.7,1.1-97-2.8c-4.9-0.6-9.7-1.3-13.2-5.5
		c4.2-11.6,11.4-15.6,24.3-15.1c57.1,2.2,114.2,3.9,170.7-7.8c5.7-1.2,11.3-2.7,17-4C631.3,424,634.3,424,637.2,424z"/>
	<path fill="#F6F9FA" d="M686.9,472.7c18.1,23.2,34,47.7,45.7,74.9c7.1,16.4,10.3,33.5,6.6,51.2c-3.1,14.8-10.6,26.6-24.7,32.9
		c2.9-46.5-7.9-89.7-29.8-130.4C679.9,492.3,677.1,481.4,686.9,472.7z"/>
	<path fill="#F6F9FA" d="M309.9,616.5c-0.8-6.4-1.1-11,8-12.1c12.8-1.6,25.8-3,39.3-11.6c-2.8,43.9,6.3,83.3,11.9,123.1
		c-14.6-11.7-26.7-25.3-35.6-42.4C323.9,655.1,318.2,635.3,309.9,616.5z"/>
	<path fill="#E9BF43" d="M666.5,290.4c0.8,5.7-0.9,10.8-7.4,12.1c-6.6,1.3-11.5-1.6-12.8-8.9c-2.4-13.2-9.1-22.1-23-23
		c-15.7-1.1-26.1,5.9-31.2,21.4c-2.1,6.4-7,10-13.7,7.9c-5-1.6-7.5-5.7-7.3-11.6c0.7-20.2,26.6-41.4,50-40.7
		C648,248.2,666.8,265.7,666.5,290.4z"/>
	<path fill="#94BECD" d="M686.9,472.7c-9.8,8.8-7,19.7-2.2,28.6c21.9,40.8,32.8,83.9,29.8,130.4c-4.1,4-9.2,7.5-14.3,4.8
		c-4.3-2.3-1.6-8.2-1.5-12.5c0.7-49.1-10.4-95.3-34.9-137.6c-4.9-8.5-3.6-11.9,4-17.1C676.3,463.5,682.3,461.3,686.9,472.7z"/>
	<path fill="#F6F9FA" d="M202.8,204.4c-13.7,45.4-19.8,91.3-8.6,138.4c-8,0.2-12.3-3.7-14.6-11.6c-9.3-31.6-11.4-63.5-5.8-96.1
		C176.7,217.8,185.7,207.3,202.8,204.4z"/>
	<path fill="#F6F9FA" d="M356.6,451.2c9.4-29.7,28.1-53.4,47.5-76.7c7.1-8.5,11.6-0.7,17,2.1c-6.9,30-29.1,51.2-43,77.2
		C374.3,461,360.2,458.3,356.6,451.2z"/>
	<path fill="#F6F9FA" d="M794,342.5c3-29.7,4.3-59.3-0.2-89c-2.5-16.7-6.4-33-11.6-49c17.2,2.7,26.2,13.1,29.2,30.4
		c5.5,31,3.3,61.5-4.4,91.8C805.2,334.5,801.9,340.4,794,342.5z"/>
	<path fill="#F6F9FA" d="M311.9,419.1c-5.6-3.1-4.1-8.6-3.9-13.3c0.5-19.4,1.6-38.8,2.1-58.2c0.3-11.5,4.6-18,16.8-16.4
		c2.3,15.9,5,31.7,4.4,47.8C330.7,395.3,331.1,412.1,311.9,419.1z"/>
	<g>
		<path fill="#94BECD" d="M328,907.5c3.3,20.6,18.1,27.2,35.6,31.8c27.6,7.2,55.1,7,82.9,1.6c10.7-2.1,16.3-6.8,16.4-18.5
			c0.1-6.9,2.4-13.7,3.7-20.5c12.5,0.1,25-0.2,37.5,0.6c9.5,0.6,13.3-3,12.4-12.4c4.4,10.7,4.8,22.3,6.1,33.6
			c1.1,9.8,4.6,14.8,14.6,16.8c29.4,6.1,58.3,6.3,87.3-1.8c16.5-4.6,30.1-11.4,32.7-30.9c11.1,7.2,24,7.1,36.2,9.8
			c7.7,1.7,15.2,3.5,21.9,8c10.1,6.9,9.9,10.2-1.1,16.4c-18.1,10.3-38.3,11.9-58.1,14.5c-72.5,9.4-145.5,11.3-218.5,8.8
			c-51.3-1.7-102.6-5.2-152.8-17.3c-8.9-2.1-21.5-3.3-21.5-14.1c0-11,12.9-11.1,21.5-14.4C298.9,913.9,315.2,917.3,328,907.5z"/>
		<path fill="#94BECD" d="M729.3,263.9c2.4,2.8,4.1,5.8,5.3-1.1c5.2-31.5,2.4-62.3-6-92.8c-2.4-8.5-6.1-16.8-6.1-25.9
			c21.3,20.9,28.7,48.5,32.5,76.7c18,133.2-61.4,242.4-193.3,266c-52.8,9.4-105.7,10-158-4.3c-1.8-0.5-3.5-1.5-5.8-2.6
			c5.5-10.5,11.1-20.3,18.4-29.1c3.5,4.2,8.3,4.9,13.2,5.5c32.3,3.9,64.7,5.3,97,2.8c39.3-3.1,77.6-10.9,110.6-35.2l0,0
			c0.9-0.9,4.7,0.7,2.4-3c63.8-22.3,83.7-74.2,88.5-136.3C728.6,277.8,728.9,270.8,729.3,263.9z"/>
		<path fill="#94BECD" d="M407.1,745.9c4.3,0.9,8.7,1.3,12.7,2.8c43.1,16.8,87,15,131.2,5.7c9.3-1.9,15.9-12.5,27-8.6
			c-4.5,18.9-16,33.8-27.2,48.9c-3.6,4.9-9.1,5.5-14.4,6.6c-28.7,5.9-57.3,5.9-86.1,0.4c-9.3-1.8-16.1-5.7-21.2-14
			C420.8,774.3,410.8,761.8,407.1,745.9z"/>
		<path fill="#94BECD" d="M262.8,143.7c1.4,15.5-9.2,27.9-10.5,43.1c-2.2,25.3-6.8,50.4-1.5,75.8c0.7,3.4,0.5,7.3,5.4,7.3
			c2.9,33.5,4.8,67.6,22.8,96.9c8.8,14.3,11,28.2,8.8,43.9c-2.8,2-4.4-0.2-6-2c-56.4-59.4-71.8-173.9-32.9-246
			C252.6,155.8,255.8,148.2,262.8,143.7z"/>
		<path fill="#94BECD" d="M625.6,493.6c-10.2,14.9-25.6,22.4-41.1,29.2c-53.6,23.5-108.2,25.6-163.8,7.7c-2.3-0.7-4.8-0.5-7.2-0.8
			c-0.3-20.7-0.3-20.8,19.7-18.3c63.9,7.8,126.9,5.3,188-17.7C622.5,493.3,624.1,493.6,625.6,493.6z"/>
		<path fill="#94BECD" d="M418.5,920.8c-1-19.4-1.7-38.9-3-58.3c-1.1-16.1-9.6-27.9-21.8-37.4c-12.8-9.9-25.8-19.7-36.8-32
			c-3.7-4.1-7.6-8-6-14.4c27.6,20.3,56.6,37.5,90.6,44.3c18.3,3.7,18,3.9,13.5,22.9c-4.2,18-7.9,36.1-11.5,54.3
			C439.5,920.8,439.7,920.9,418.5,920.8z"/>
		<path fill="#94BECD" d="M627.9,784.4c7.1,5.6,0,8.4-2.5,11.7c-8.7,11.7-21.2,19.1-32.8,27c-15.6,10.6-21.2,25.5-22.8,42.7
			c-1.7,18.2-1.9,36.6-2.8,54.9c-21.4,0.2-21.1,0.2-25.3-20.3c-4.4-21.4-9.2-42.8-14.1-64.1c-1.1-4.9-4.1-10.2,3.9-11.2
			C567.5,820.8,598.3,804,627.9,784.4z"/>
		<path fill="#94BECD" d="M616.5,709.3c37.1-33.7,50.8-78.2,56.5-126.5c17.7,71.7-25.4,174.3-84.5,196.5
			C601.4,756.1,608.5,732.5,616.5,709.3z"/>
		<path fill="#94BECD" d="M309.9,616.5c8.3,18.8,13.9,38.6,23.6,56.9c9,17.1,21,30.6,35.6,42.4l-0.3-0.2c0.9,0.8,1.7,1.6,2.6,2.3
			c3.7,10.3,7.1,20.7,11.2,30.8c3.9,9.6,8.5,19,13,28.8C359.2,768.7,304.6,695.6,309.9,616.5z"/>
		<path fill="#94BECD" d="M794,342.5c-9.1,3.1-19.9,10.1-27.4,4.4c-4.6-3.5,3-15,4.9-23c9.1-36.7,10.3-73.7,4.8-111
			c-1.4-9.6-1.4-9.6,5.9-8.4c5.2,16,9,32.3,11.6,49C798.3,283.3,797,312.9,794,342.5z"/>
		<path fill="#94BECD" d="M202.8,204.4c4.1-3.8,7.3-3.9,6.8,2.8c-0.6,7.9-2.4,15.8-3,23.7c-2.9,39.7,0.6,78.6,14.6,116.9
			c-10.3,1.7-18.9-0.2-27-5C183,295.7,189.1,249.8,202.8,204.4z"/>
		<path fill="#94BECD" d="M342,523.6c-24,30.1-71.9,33.3-95.4,6.1c-8.4-9.8-14.3-20.6-5.4-33.5c3.2,19.9,10.5,28.9,29.4,31.9
			c23.5,3.8,46.1,2.1,64.2-18.7C337.3,514.4,339.7,519,342,523.6z"/>
		<path fill="#94BECD" d="M311.9,419.1c19.1-7,18.8-23.7,19.4-40.1c0.6-16.2-2.1-31.9-4.4-47.8c12.6-1.4,17.4,3.3,16.4,17.1
			c-2.3,34.2-3.1,68.5-4.7,106.5C331.5,438.8,323.1,427.7,311.9,419.1z"/>
		<path fill="#94BECD" d="M356.6,451.2c3.6,7.1,17.7,9.8,21.5,2.7c13.9-26,36.1-47.2,43-77.2c10.3,3.4,10.9,9.9,5.7,18.3
			c-14.6,23.5-29.3,46.9-44,70.3c-2.1,3.4-4.1,7.2-9,3.8c-6.4-4.5-14-2.9-21.4-4.2C353.3,460,352.6,454.9,356.6,451.2z"/>
		<path fill="#E9BF43" d="M500.8,668.2c10.4,7.3,10.5,16.6,2.7,25.2c-5.9,6.5-14.5,7-21.1,0.5c-8.6-8.5-8-17.5,1.5-25.4
			c0.2,6.8,3.5,12.4,10.1,12.2C501,680.6,501,673.8,500.8,668.2z"/>
		<path fill="#94BECD" d="M369.6,489.8c-9.1,3-9.4,12.4-13.1,19.3c-2.9,5.4-2,12.7-7.6,16.9c-0.3-8.3-1.3-16.7-0.9-25
			C348.7,485.6,355.3,482.4,369.6,489.8z"/>
	</g>
	<path fill="#F6F9FA" d="M500.8,668.2c0.2,5.7,0.2,12.4-6.8,12.6c-6.6,0.2-9.9-5.4-10.1-12.2C489.5,664.2,495.1,664.1,500.8,668.2z"
		/>
	<path fill="#94BECD" d="M465.9,124.6c17.8-3.2,35.6-2.7,53.4-0.2C501.5,124.5,483.7,124.6,465.9,124.6z"/>
	<path fill="#94BECD" d="M637.2,424c-2.9,0-5.9,0-8.8,0c2.5-3.3,6-2.5,9.4-2.5C637.7,422.4,637.5,423.2,637.2,424L637.2,424z"/>
	<path fill="#F6F9FA" d="M637.1,424.1c0.3-0.8,0.6-1.7,0.6-2.6c0.6-0.3,1.2-0.5,1.8-0.4C641.9,424.7,638,423.2,637.1,424.1z"/>
	<path fill="#F6F9FA" d="M371.4,718c-0.9-0.8-1.7-1.6-2.6-2.3C371.4,714.5,371.1,716.6,371.4,718z"/>
	<path fill="#94BECD" d="M578,745.9c-0.5-1.9,0.4-2.9,2-3.6C580.5,744.2,580,745.6,578,745.9z"/>
</g>
</svg>
