<?xml version="1.0" encoding="utf-8"?>
<!-- Generator: Adobe Illustrator 18.0.0, SVG Export Plug-In . SVG Version: 6.00 Build 0)  -->
<!DOCTYPE svg PUBLIC "-//W3C//DTD SVG 1.1//EN" "http://www.w3.org/Graphics/SVG/1.1/DTD/svg11.dtd">
<svg version="1.1" id="Capa_1" xmlns="http://www.w3.org/2000/svg" xmlns:xlink="http://www.w3.org/1999/xlink" x="0px" y="0px"
	 viewBox="0 0 1630 650" enable-background="new 0 0 1630 650" xml:space="preserve">
<g>
	<g>
		<path fill="#003460" d="M854.8,558.4c-8.2-32.7-9.8-65.9-6.2-99.4c0.4-3.6-0.2-6.5-1.9-9.7c-12.2-21.6-18.2-45-17.8-69.8
			c0.1-5.8-1.4-7.6-7.4-8.5c-37-5.5-59.9-39.3-52.2-75.9c4.2-19.7,15.4-29.8,42.5-38c-5.4-8.6-11-17.1-16.2-25.8
			c-1.8-3.1-4.5-2.6-7.2-3c-35.5-4.2-42-11-45.6-46.8c-1.1-11.1-1.3-22.2-0.1-33.3c2-19.3,11-33.2,30.2-38.3
			c9.9-2.6,14.8-8.3,19.5-17.1c15.3-28.8,41-45.9,70.9-56.4c70.7-24.7,140.9-23.9,209.3,8.2c25.2,11.8,45.4,30,56.5,56.4
			c1.6,3.7,4,5,7.3,6.2c7,2.6,14.1,5.2,20.9,8.3c11.9,5.5,14.7,17,16.7,28.3c3.5,20.8,1.2,41.3-4.2,61.5
			c-2.5,9.7-8.3,15.6-17.8,18.2c-2.1,0.6-4.2,1.8-6.2,1.7c-18.2-0.5-28.6,9.7-36.4,24.8c-3.9,7.7-10.4,13.9-17,19.5
			c-4.3,3.7-4.2,6.3-0.8,10.6c12.6,16.1,24.1,32.9,31.8,52c5.4,13.5,7.8,27.4,3.5,41.7c-5.3,17.6-17.5,28.1-35.1,32
			c-4.7,1-6.4,2.7-7.4,7.4c-2.7,12.7-7.2,24.9-14,36.1c-1.7,2.8-2.3,5.6-1.9,8.8c3.9,33.7,1.9,67.1-6.2,100.1
			c-1.6,12-10.2,16.2-20.6,19.1c-18.3,5-36.5,4.9-55,1.1c-6.3-1.3-8.5-4.3-9.2-10.4c-0.8-6.9-1-14.1-3.8-20.7
			c-1.5-11.4-4.8-22.3-7.5-33.4c-1.1-4.7-4.1-4.6-7.6-4.6c-3.5,0-6.3-0.2-7.5,4.6c-3.4,13.5-7,26.9-8.9,40.7
			c-0.8,4.2-2.3,8.4-2.4,12.7c-0.1,7.2-3.6,10.1-10.4,11.4c-17.5,3.3-34.8,3.5-52.2-1C866.2,575.2,856.9,571.1,854.8,558.4z
			 M1049.9,258.5c-2.1,0-4.3-0.5-5.9,1.6c-3.6,0.8-7.1,1.8-10.7,2.5c-35.6,7.2-71.6,6.2-107.5,4.8c-8.1-0.3-12.7,2.1-15.3,9.3
			c-4.6,5.4-8.2,11.5-11.6,18c1.5,0.6,2.5,1.3,3.7,1.6c33,8.8,66.3,8.5,99.5,2.7c83.1-14.6,133-81.9,121.7-164.2
			c-2.4-17.4-7.1-34.4-20.5-47.4c-13.8-20.3-35-30.6-56.7-38.1c-65.3-22.6-130.4-21.3-193.9,7.4c-15.2,6.9-29,16.5-39,30.5
			c-4.4,2.8-6.4,7.4-8.7,11.7c-24.5,44.5-14.8,115.2,20.7,151.8c1,1.1,2,2.5,3.8,1.2c1.3-9.7,0-18.2-5.6-27.1
			c-11.3-18.1-12.5-39.1-14.4-59.8c-0.9-23,2.4-44.9,16.2-64.1c1-1.3,0.5-3.3,2.8-4.2c13.7-5.3,27.1-10.9,41.7-13.8
			c23.6-4.6,47.5-5.8,71.3-7.6c11.2-0.1,22.4-0.1,33.7-0.2c14.8,1.5,29.7,3.1,44.5,4.3c18.6,1.5,36.8,4.9,54.3,11.4
			c11.2,4.1,19.3,11.7,24.5,22.6c7.3,15.2,9,31.3,8.9,47.8c-0.3,4.3-0.5,8.6-0.8,12.9c-3,38.3-15.6,70.4-55.7,84.1
			C1050.6,258.2,1050.2,258.2,1049.9,258.5z M963.6,410.7c-3.6-2.5-7.1-2.5-10.6,0.2c-6,4.9-6.4,10.4-1,15.7c4.1,4,9.6,3.7,13.3-0.3
			C970.2,421,970.2,415.2,963.6,410.7z M854.1,202.7c-7.7-1-10.4,3-10.6,10.1c-0.3,12-1,23.9-1.3,35.9c-0.1,2.9-1.1,6.3,2.5,8.2
			c7,5.4,12.3,12.2,16.9,22c1-23.5,1.5-44.6,3-65.8C865.1,204.7,862.1,201.8,854.1,202.7z M913.5,230.7c-3.4-1.7-6.3-6.5-10.7-1.3
			c-12.2,14.4-24,29-29.9,47.3c-2.5,2.3-2.1,5.4-2.6,8.4c4.6,0.8,9.4-0.2,13.5,2.6c3.1,2.1,4.4-0.2,5.7-2.3
			c9.2-14.5,18.5-28.9,27.7-43.4C920.3,236.9,919.9,232.8,913.5,230.7z M770.5,209.9c5.1,3,10.6,4.2,17,3.1
			c-8.9-23.6-11-47.7-9.2-72.1c0.4-4.9,1.5-9.7,1.9-14.6c0.3-4.1-1.7-4.1-4.3-1.7c-10.8,1.8-16.4,8.3-18.3,18.9
			c-3.5,20.1-2.2,39.8,3.7,59.3C762.8,207.6,765.5,210,770.5,209.9z M1148.3,209.7c5-1.3,7.1-5,8.3-9.7c4.8-18.7,6.2-37.5,2.7-56.7
			c-1.9-10.7-7.6-17.1-18.4-18.8c-4.6-0.7-4.6-0.7-3.7,5.2c3.5,23,2.7,45.9-3,68.5c-1.2,4.9-6,12-3.1,14.2
			C1135.8,216,1142.6,211.7,1148.3,209.7z M880.5,440l0.2,0.1c-3.6-24.6-9.2-48.9-7.5-76c-8.5,5.3-16.7,6.2-24.8,7.2
			c-5.7,0.7-5.5,3.6-5,7.5c-3.4,48.8,31.1,93.9,54,99.4c-2.8-6-5.7-11.8-8.2-17.8c-2.6-6.3-4.7-12.7-7-19
			C881.9,440.6,882.1,439.3,880.5,440z M1098.2,388.2c8.9-3.9,13.6-11.2,15.6-20.3c2.3-11,0.3-21.5-4.1-31.6
			c-7.4-16.8-17.4-31.9-28.8-46.2c-2.9-7-6.7-5.7-12-2.1c-4.8,3.2-5.6,5.3-2.5,10.5c15.4,26.2,22.4,54.6,22,84.9
			c0,2.6-1.7,6.3,1,7.7C1092.4,392.8,1095.7,390.6,1098.2,388.2z M1012.2,458.7c1.3-0.2,1.6-1.1,1.3-2.2
			c6.4-13.2,10.3-27.1,12.1-42.6c-13.4,4.9-25.6,8.4-38.1,10.4c-3.6,0.6-5.7,2.1-7.7,5.4c-10.6,17.9-32,18-42.6,0.3
			c-1.7-2.8-3-4.9-6.6-5.5c-13.1-2-25.8-5.9-39.4-10.5c2.5,16.1,5.9,30.9,13.4,44.6c2.4,9.8,8.7,17.5,13.9,25.8
			c3.2,5.1,7.5,7.5,13.4,8.6c18.1,3.4,36.2,3.4,54.2-0.2c3.3-0.7,6.8-1.1,9-4.1C1002.2,479.5,1009.4,470.3,1012.2,458.7
			L1012.2,458.7z M911.8,566.6c13.4,0,13.2,0,15.8-12.6c2.2-11.2,4.6-22.4,7.2-33.5c2.8-11.7,3-11.9-8.5-14.2
			c-21.4-4.2-39.7-14.9-57.1-27.4c-2-2.1-4.1-4.3-6.4-6.7c-4.1,20.1,0,69.2,6.8,85.3c1.1,2.6,2.6,4.1,5.1,4.8
			C886.8,566.1,899,569.2,911.8,566.6z M1043.7,482.4c-18.7,12.1-38,22.5-60.6,25.2c-5.1,0.6-3.2,3.8-2.5,6.9
			c3.1,13.2,6.1,26.3,8.9,39.6c2.6,12.6,2.5,12.7,15.9,12.5c11.9,2.2,23.2-0.1,34.6-3.3c4.8-1.3,6.9-4.1,8.3-8.7
			c3.2-10.7,5.3-21.6,6.2-32.7c1.4-16.3,2.9-32.6,0.1-49.7C1050.4,476.1,1047,479.3,1043.7,482.4z M1042.2,302.9
			c-0.9,0-1.9-0.2-2.7,0.1C1001,317.3,961.3,318.8,921,314c-12.6-1.5-12.6-1.5-12.4,11.3c-3.9,13-3.9,12.8,10.1,15
			c38.8,6.1,77.1,2.7,114.9-7.1c6.6-1.7,8.9-0.5,9,6.3c0.2,9.3,1.1,18.5,1.5,27.8c0.8,23.3-3,46.1-7.6,68.8
			c-5,14.3-9.5,28.9-17.6,43.2c37.2-13.7,64.4-77.1,53.2-121.3c-2-18.6-9-35.5-17.4-52C1051.3,299.3,1047.6,298.7,1042.2,302.9z
			 M863.6,321.5c-1.5-2.8-3-5.7-4.6-8.8c-11.4,12.9-25.7,13.9-40.5,11.5c-11.9-1.9-16.5-7.4-18.5-19.7c1.1-4.2,1.8-6.1,4.9-0.7
			c6.1,10.4,24.4,13.6,37.5,7.3c8.2-4,10.7-14,6.7-27.1c-3.7-11.9-8.6-15.5-20.9-15.1c-11,0.4-21.1,3.9-30.7,9.2
			c-8.2,4.5-12.7,11.4-14.7,20.3c-4.5,21.1,7.2,45.6,27.1,53.7c26.2,10.7,51.4,6.8,72.9-11.3c17.2-14.5,18.2-25-1.9-40.3
			c-9-4.5-13.2-2.6-13.6,6.9c-0.2,5.1,0.4,10.3,0.6,15.4C866.1,323.7,864.9,322.6,863.6,321.5z M1029.4,373.8c0-6.2-0.1-12.4,0-18.5
			c0.1-4.9-1.3-6.2-6.5-5.1c-13.8,3.1-27.7,5.4-41.8,6.4c-27.6,1.8-55,0.3-82.1-5.2c-7.1-1.4-11.6,1.6-11.6,9.1
			c0,10.8,0.6,21.6,0.7,32.4c0,3.9,2.3,5.2,5.3,6.5c10.9,4.4,22.2,7.4,33.7,10.2c5.4,1.3,8.6,0.5,12-4.7
			c8.8-13.1,28.5-14.3,37.3-1.7c5.4,7.7,10.4,7.8,17.6,5.3c3.5-1.2,7.2-1.8,10.8-2.8C1029,399,1029,399,1029.4,373.8z M893.4,172
			c0.5-7.1-1.3-14.8-5.1-22.1c-2.7-5.2-6.3-9.3-12.8-8.9c-7.1,0.5-10.8,5.3-13.2,11.3c-1,2.5-1.8,5.4-1.8,8.1
			c-0.1,13.2-5.8,28.2,11.4,36c1.2,0.6,2.2,2.2,2.9,3.5c2.9,6.3,6.3,4.4,9.8,0.7C891.8,192.9,893.4,183.3,893.4,172z M1068,177.5
			c0.2-15.2-11.7-26-28.7-26.5c-14.7-0.4-31,12.7-31.5,25.1c-0.1,3.6,1.5,6.2,4.6,7.2c4.2,1.3,7.3-0.9,8.7-4.9
			c3.2-9.6,9.8-13.9,19.6-13.2c8.7,0.6,13,6.1,14.5,14.2c0.8,4.5,3.9,6.3,8.1,5.5C1067.4,184.2,1068.5,181.1,1068,177.5z"/>
		<path fill="#F6F9FA" d="M1107.6,161.2c0.1-16.5-1.6-32.6-8.9-47.8c-5.2-10.9-13.3-18.5-24.5-22.6c-17.5-6.5-35.7-9.9-54.3-11.4
			c-14.9-1.2-29.7-2.9-44.5-4.3c-11.2-1.5-22.4-1.8-33.7,0.2c-23.9,1.8-47.7,3-71.3,7.6c-14.6,2.9-28,8.5-41.7,13.8
			c-2.3,0.9-1.9,2.8-2.8,4.2c-13.8,19.2-17.1,41.1-16.2,64.1c-3.1,0-3-2.4-3.4-4.5c-3.3-15.7-0.4-31.2,1-46.8
			c0.8-9.4,7.5-17,6.6-26.6c10-14,23.7-23.6,39-30.5c63.5-28.7,128.6-30,193.9-7.4c21.7,7.5,42.9,17.8,56.7,38.1
			c0,5.6,2.3,10.7,3.8,16c5.3,18.8,7.1,37.8,3.8,57.3C1110.2,164.8,1109.1,162.9,1107.6,161.2z"/>
		<path fill="#F6F9FA" d="M1029.4,373.8c-0.4,25.1-0.4,25.2-24.6,32c-3.6,1-7.3,1.6-10.8,2.8c-7.2,2.5-12.3,2.3-17.6-5.3
			c-8.8-12.7-28.5-11.4-37.3,1.7c-3.5,5.1-6.6,6-12,4.7c-11.4-2.8-22.7-5.8-33.7-10.2c-3.1-1.2-5.3-2.5-5.3-6.5
			c-0.1-10.8-0.7-21.6-0.7-32.4c0-7.5,4.5-10.6,11.6-9.1c27.1,5.4,54.5,7,82.1,5.2c14.1-0.9,28-3.3,41.8-6.4
			c5.2-1.2,6.7,0.2,6.5,5.1C1029.3,361.5,1029.4,367.6,1029.4,373.8z"/>
		<path fill="#F6F9FA" d="M881,300.6c20.1,15.3,19.1,25.8,1.9,40.3c-21.5,18.1-46.7,22-72.9,11.3c-19.9-8.1-31.6-32.7-27.1-53.7
			c1.9-8.9,6.5-15.8,14.7-20.3c9.6-5.3,19.7-8.8,30.7-9.2c12.3-0.4,17.2,3.1,20.9,15.1c4,13.1,1.6,23.1-6.7,27.1
			c-13,6.3-31.3,3-37.5-7.3c-3.2-5.4-3.9-3.5-4.9,0.7c-5.6,8-1.9,14.7,3.4,20.7c14.8,16.8,45,14.8,60.1-3.8c1.2,1.1,2.4,2.2,4.3,1.4
			c3.5-2.6,2.9-7.1,4.8-10.4C875,308.2,875.2,302.5,881,300.6z"/>
		<path fill="#F6F9FA" d="M904.6,458.7c-7.5-13.7-10.9-28.5-13.4-44.6c13.7,4.7,26.3,8.5,39.4,10.5c3.6,0.5,4.9,2.7,6.6,5.5
			c10.6,17.7,32,17.6,42.6-0.3c2-3.3,4.1-4.9,7.7-5.4c12.5-2,24.7-5.5,38.1-10.4c-1.9,15.5-5.8,29.4-12.1,42.6
			c-1,0.4-1.6,1.1-1.3,2.2l0-0.1c-7-2.4-11.2,4.1-17,5.3c-27.8,5.7-55.5,6.8-82.6-3.5C910.1,459.5,907.3,459.2,904.6,458.7z"/>
		<path fill="#F6F9FA" d="M1036.5,436.1c4.6-22.7,8.4-45.5,7.6-68.8c-0.3-9.3-1.3-18.5-1.5-27.8c-0.1-6.8-2.4-8-9-6.3
			c-37.8,9.8-76.1,13.2-114.9,7.1c-13.9-2.2-14-2-10.1-15c1.5,0.1,3.1,0,4.5,0.5c35,11,69.4,9.7,103.1-4.8c9.8-4.2,19.5-8.8,25.9-18
			c5.4-4.3,9.1-3.7,12.5,3c8.4,16.5,15.4,33.4,17.4,52C1068.5,387.8,1059.8,415.3,1036.5,436.1z"/>
		<path fill="#F6F9FA" d="M1043.7,482.4c3.3-3.2,6.7-6.3,10.9-10.3c2.7,17.1,1.3,33.5-0.1,49.7c-1,11-3.1,22-6.2,32.7
			c-1.4,4.7-3.5,7.4-8.3,8.7c-11.4,3.2-22.8,5.5-34.6,3.3c0.5-11.3,0.7-22.7,1.8-33.9c1-10.6,4.6-19.8,14.4-26.4
			c7.3-4.9,15.2-9.4,20.6-16.7C1043.7,487.6,1048.2,485.9,1043.7,482.4z"/>
		<path fill="#F6F9FA" d="M911.8,566.6c-12.8,2.5-25-0.5-37.2-4.2c-2.5-0.8-4-2.3-5.1-4.8c-6.7-16.1-10.9-65.2-6.8-85.3
			c2.3,2.5,4.4,4.6,6.4,6.7c-1,3.9,1.5,6.3,3.8,8.9c6.9,7.6,15.1,13.6,23.2,19.7c7.7,5.9,13.1,13.1,13.8,23.1
			C910.7,542.6,911.2,554.6,911.8,566.6z"/>
		<path fill="#E9BF43" d="M893.4,172c0,11.2-1.6,20.8-8.8,28.6c-3.5,3.8-6.9,5.6-9.8-0.7c-0.6-1.4-1.6-3-2.9-3.5
			c-17.2-7.8-11.5-22.9-11.4-36c0-2.7,0.8-5.5,1.8-8.1c2.4-6,6-10.8,13.2-11.3c6.5-0.4,10.1,3.7,12.8,8.9
			C892.1,157.2,893.9,164.9,893.4,172z"/>
		<path fill="#F6F9FA" d="M1049.5,260c-20.8,15-44.9,19.8-69.7,21.7c-20.3,1.5-40.8,0.7-61.1-1.7c-3.1-0.4-6.1-0.8-8.3-3.4
			c2.6-7.2,7.2-9.6,15.3-9.3c35.9,1.4,71.9,2.4,107.5-4.8c3.6-0.7,7.1-1.6,10.7-2.5C1045.8,260,1047.7,260,1049.5,260z"/>
		<path fill="#F6F9FA" d="M1080.8,290c11.4,14.3,21.4,29.4,28.8,46.2c4.4,10.1,6.5,20.7,4.1,31.6c-1.9,9.1-6.7,16.4-15.6,20.3
			c1.9-28.7-5-55.3-18.8-80.5C1076.4,302.2,1074.7,295.4,1080.8,290z"/>
		<path fill="#F6F9FA" d="M843.4,378.8c-0.5-3.9-0.7-6.8,5-7.5c8-1,16.3-1.9,24.8-7.2c-1.7,27.1,3.9,51.4,7.5,76
			c-9.2-7.2-16.8-15.6-22.4-26.1C852.2,402.6,848.6,390.4,843.4,378.8z"/>
		<path fill="#E9BF43" d="M1068,177.5c0.5,3.5-0.6,6.7-4.7,7.5c-4.2,0.8-7.2-1-8.1-5.5c-1.5-8.1-5.7-13.6-14.5-14.2
			c-9.9-0.7-16.4,3.6-19.6,13.2c-1.3,3.9-4.4,6.2-8.7,4.9c-3.2-1-4.7-3.5-4.6-7.2c0.4-12.5,16.7-25.6,31.5-25.1
			C1056.3,151.5,1068.2,162.3,1068,177.5z"/>
		<path fill="#94BECD" d="M1080.8,290c-6.2,5.4-4.4,12.1-1.4,17.6c13.8,25.2,20.6,51.8,18.8,80.5c-2.6,2.5-5.8,4.6-9,2.9
			c-2.7-1.4-1-5.1-1-7.7c0.4-30.3-6.6-58.8-22-84.9c-3.1-5.2-2.3-7.3,2.5-10.5C1074.2,284.4,1077.9,283,1080.8,290z"/>
		<path fill="#F6F9FA" d="M776,124.5c-8.7,28-12.5,56.4-5.4,85.4c-5,0.1-7.7-2.3-9.2-7.2c-5.8-19.5-7.2-39.2-3.7-59.3
			C759.5,132.7,765.2,126.2,776,124.5z"/>
		<path fill="#F6F9FA" d="M872.8,276.8c5.9-18.3,17.7-33,29.9-47.3c4.5-5.2,7.3-0.4,10.7,1.3c-4.3,18.5-18.3,31.6-27.1,47.7
			C884,282.8,875.1,281.2,872.8,276.8z"/>
		<path fill="#F6F9FA" d="M1148.3,209.7c1.9-18.3,2.7-36.6-0.1-54.9c-1.6-10.3-4-20.4-7.3-30.3c10.8,1.7,16.5,8.1,18.4,18.8
			c3.5,19.2,2.1,38-2.7,56.7C1155.3,204.7,1153.3,208.4,1148.3,209.7z"/>
		<path fill="#F6F9FA" d="M844.7,256.9c-3.6-1.9-2.6-5.3-2.5-8.2c0.3-12,1-23.9,1.3-35.9c0.2-7.1,2.9-11.1,10.6-10.1
			c1.4,9.8,3.1,19.5,2.8,29.5C856.5,242.3,856.7,252.6,844.7,256.9z"/>
		<g>
			<path opacity="0.79" fill="#FFFFFF" d="M854.8,558.4c2.1,12.7,11.4,16.8,22.4,19.6c17.4,4.5,34.7,4.3,52.2,1
				c6.7-1.3,10.2-4.2,10.4-11.4c0.1-4.2,1.5-8.5,2.4-12.7c7.9,0.1,15.8-0.1,23.6,0.4c6,0.4,8.4-1.9,7.8-7.7c2.8,6.6,3,13.8,3.8,20.7
				c0.7,6.1,2.9,9.1,9.2,10.4c18.5,3.8,36.7,3.9,55-1.1c10.4-2.8,19-7.1,20.6-19.1c7,4.4,15.1,4.4,22.8,6c4.9,1,9.6,2.2,13.8,5
				c6.4,4.2,6.2,6.3-0.7,10.1c-11.4,6.3-24.1,7.3-36.6,8.9c-45.7,5.8-91.6,7-137.6,5.4c-32.3-1.1-64.6-3.2-96.2-10.6
				c-5.6-1.3-13.5-2-13.5-8.7c0-6.8,8.1-6.8,13.5-8.9C836.4,562.4,846.7,564.5,854.8,558.4z"/>
			<path fill="#94BECD" d="M1107.6,161.2c1.5,1.7,2.6,3.6,3.3-0.7c3.3-19.4,1.5-38.4-3.8-57.3c-1.5-5.3-3.9-10.3-3.8-16
				c13.4,12.9,18.1,30,20.5,47.4c11.3,82.2-38.7,149.6-121.7,164.2c-33.2,5.8-66.6,6.2-99.5-2.7c-1.1-0.3-2.2-0.9-3.7-1.6
				c3.4-6.5,7-12.5,11.6-17.9c2.2,2.6,5.2,3,8.3,3.4c20.3,2.4,40.7,3.2,61.1,1.7c24.7-1.9,48.9-6.7,69.7-21.7l0,0
				c0.6-0.6,3,0.4,1.5-1.8c40.2-13.8,52.7-45.8,55.7-84.1C1107.1,169.8,1107.3,165.5,1107.6,161.2z"/>
			<path fill="#94BECD" d="M904.6,458.7c2.7,0.6,5.5,0.8,8,1.7c27.2,10.4,54.8,9.2,82.6,3.5c5.9-1.2,10-7.7,17-5.3
				c-2.8,11.7-10.1,20.9-17.1,30.2c-2.3,3-5.7,3.4-9,4.1c-18.1,3.7-36.1,3.6-54.2,0.2c-5.9-1.1-10.1-3.5-13.4-8.6
				C913.2,476.2,907,468.5,904.6,458.7z"/>
			<path fill="#94BECD" d="M813.7,87c0.9,9.6-5.8,17.2-6.6,26.6c-1.4,15.6-4.3,31.1-1,46.8c0.4,2.1,0.3,4.5,3.4,4.5
				c1.8,20.7,3,41.7,14.4,59.8c5.6,8.8,6.9,17.4,5.6,27.1c-1.8,1.2-2.8-0.1-3.8-1.2c-35.5-36.7-45.2-107.3-20.7-151.8
				C807.3,94.5,809.3,89.8,813.7,87z"/>
			<path fill="#94BECD" d="M1042.2,302.9c-6.4,9.2-16.1,13.8-25.9,18c-33.7,14.5-68.2,15.8-103.1,4.8c-1.4-0.4-3-0.3-4.5-0.5
				c-0.2-12.8-0.2-12.8,12.4-11.3c40.3,4.8,79.9,3.3,118.4-10.9C1040.3,302.8,1041.3,303,1042.2,302.9z"/>
			<path fill="#94BECD" d="M911.8,566.6c-0.6-12-1.1-24-1.9-36c-0.7-9.9-6-17.2-13.8-23.1c-8.1-6.1-16.3-12.2-23.2-19.7
				c-2.3-2.5-4.8-5-3.8-8.9c17.4,12.5,35.6,23.1,57,27.4c11.5,2.3,11.3,2.4,8.5,14.2c-2.6,11.1-5,22.3-7.2,33.5
				C925,566.6,925.2,566.7,911.8,566.6z"/>
			<path fill="#94BECD" d="M1043.7,482.4c4.5,3.4,0,5.2-1.6,7.2c-5.5,7.2-13.4,11.8-20.6,16.7c-9.8,6.6-13.3,15.8-14.4,26.4
				c-1.1,11.3-1.2,22.6-1.8,33.9c-13.5,0.2-13.3,0.1-15.9-12.5c-2.7-13.2-5.8-26.4-8.9-39.6c-0.7-3-2.6-6.3,2.5-6.9
				C1005.7,504.9,1025,494.5,1043.7,482.4z"/>
			<path fill="#94BECD" d="M1036.5,436.1c23.3-20.8,32-48.3,35.6-78.1c11.1,44.2-16,107.6-53.2,121.3
				C1027,465,1031.5,450.4,1036.5,436.1z"/>
			<path fill="#94BECD" d="M843.4,378.8c5.2,11.6,8.8,23.8,14.9,35.1c5.6,10.5,13.3,18.9,22.4,26.1l-0.2-0.1c0.5,0.5,1.1,1,1.6,1.4
				c2.3,6.4,4.5,12.8,7,19c2.5,6,5.4,11.7,8.2,17.8C874.5,472.8,840,427.6,843.4,378.8z"/>
			<path fill="#94BECD" d="M1148.3,209.7c-5.7,1.9-12.5,6.2-17.3,2.7c-2.9-2.1,1.9-9.3,3.1-14.2c5.7-22.7,6.5-45.5,3-68.5
				c-0.9-5.9-0.9-5.9,3.7-5.2c3.3,9.9,5.7,19.9,7.3,30.3C1151,173.1,1150.2,191.4,1148.3,209.7z"/>
			<path fill="#94BECD" d="M776,124.5c2.6-2.3,4.6-2.4,4.3,1.7c-0.4,4.9-1.5,9.7-1.9,14.6c-1.8,24.5,0.4,48.5,9.2,72.1
				c-6.5,1.1-11.9-0.1-17-3.1C763.5,180.8,767.3,152.5,776,124.5z"/>
			<path fill="#94BECD" d="M863.6,321.5c-15.1,18.6-45.3,20.6-60.1,3.8c-5.3-6-9-12.7-3.4-20.7c2,12.3,6.6,17.8,18.5,19.7
				c14.8,2.3,29,1.3,40.5-11.5C860.7,315.8,862.2,318.6,863.6,321.5z"/>
			<path fill="#94BECD" d="M844.7,256.9c12.1-4.3,11.8-14.7,12.2-24.8c0.4-10-1.3-19.7-2.8-29.5c7.9-0.9,10.9,2,10.3,10.5
				c-1.5,21.1-2,42.3-3,65.8C857,269.1,851.7,262.3,844.7,256.9z"/>
			<path fill="#94BECD" d="M872.8,276.8c2.3,4.4,11.2,6,13.6,1.6c8.7-16.1,22.8-29.1,27.1-47.7c6.5,2.1,6.9,6.1,3.6,11.3
				c-9.2,14.5-18.5,28.9-27.7,43.4c-1.3,2.1-2.6,4.4-5.7,2.3c-4-2.8-8.8-1.8-13.5-2.6C870.7,282.2,870.3,279.1,872.8,276.8z"/>
			<path fill="#E9BF43" d="M963.6,410.7c6.6,4.5,6.6,10.3,1.7,15.6c-3.7,4-9.2,4.3-13.3,0.3c-5.4-5.2-5-10.8,1-15.7
				c0.1,4.2,2.2,7.7,6.3,7.6C963.7,418.3,963.8,414.2,963.6,410.7z"/>
			<path fill="#94BECD" d="M881,300.6c-5.8,1.9-5.9,7.6-8.3,11.9c-1.9,3.4-1.2,7.8-4.8,10.4c-0.2-5.1-0.8-10.3-0.6-15.4
				C867.8,298,872,296.1,881,300.6z"/>
		</g>
		<path fill="#F6F9FA" d="M963.6,410.7c0.1,3.5,0.1,7.6-4.3,7.8c-4.2,0.1-6.2-3.3-6.3-7.6C956.5,408.2,960,408.2,963.6,410.7z"/>
		<path fill="#94BECD" d="M941.6,75.2c11.2-1.9,22.4-1.7,33.7-0.2C964.1,75.1,952.9,75.2,941.6,75.2z"/>
		<path fill="#94BECD" d="M1049.5,260c-1.8,0-3.7,0-5.5,0c1.6-2,3.8-1.6,5.9-1.6C1049.8,259,1049.7,259.5,1049.5,260L1049.5,260z"/>
		<path fill="#F6F9FA" d="M1049.5,260c0.2-0.5,0.3-1,0.4-1.6c0.4-0.2,0.7-0.3,1.1-0.2C1052.5,260.5,1050.1,259.5,1049.5,260z"/>
		<path fill="#F6F9FA" d="M882.1,441.5c-0.5-0.5-1.1-1-1.6-1.4C882.1,439.3,881.9,440.6,882.1,441.5z"/>
		<path fill="#94BECD" d="M1012.2,458.7c-0.3-1.2,0.3-1.8,1.3-2.2C1013.8,457.6,1013.5,458.5,1012.2,458.7z"/>
	</g>
	<path fill="#004367" d="M76.2,529.5h57.4v92.9H40.7v-57.4C40.7,541.3,52.6,529.5,76.2,529.5z"/>
	<path fill="#004367" d="M606.4,622.3H488.2L419,301.5l-69.2,320.8H231.6L117.4,206.4c0,0,16.5,38.2,61.3,32.6
		c40.7-5.1,47.6-51.8,47.6-51.8L294,483.9l64.2-310.7h119.9l60.8,310.7l62.5-270.2c6.8-27,24.8-40.5,54-40.5h74.3L606.4,622.3z"/>
	<path fill="#004367" d="M1297,97.2v135.1c12.4-21.4,30.4-38.8,54-52.3c20.3-11.2,45-16.9,74.3-16.9c52.9,0,96.2,22,130,65.9
		s50.6,100.8,50.6,170.5c0,69.8-16.9,126.6-50.6,170.5c-16.9,21.4-39.7,36.9-68.4,46.4c-28.7,9.6-57.1,14.3-85.3,14.3
		c-54,0-104.1-14.1-150.3-42.2c-46.2-28.1-69.2-82.1-69.2-162.1V39.8h57.4c15.7,0,29.3,5.6,40.5,16.9C1291.4,68,1297,81.5,1297,97.2
		z M1489.5,394.4c0-40.5-8.5-72-25.3-94.6c-16.9-23.6-40-35.5-69.2-35.5c-31.5,0-55.7,11.3-72.6,33.8
		c-16.9,23.6-25.3,55.7-25.3,96.2c0,47.3,7.9,81.6,23.6,103c16.9,23.6,40.5,35.4,70.9,35.4c31.5,0,55.7-11.8,72.6-35.4
		C1481.1,473.8,1489.5,439.4,1489.5,394.4z"/>
	<circle fill="#E9BF43" cx="169.4" cy="182.4" r="40.6"/>
	<g>
		<g>
			<path fill="#004367" d="M135.1,101.4V47.9c0-1.7,0.6-3.2,1.9-4.4c1.2-1.2,2.7-1.8,4.5-1.8h17.5c9.3,0,16.2,2.4,20.8,7.3
				c4.6,5.1,6.9,12.6,6.9,22.6c0,5.3-0.8,10.1-2.5,14.4c-1.9,4.4-4.3,7.8-7.4,10.1c-2.6,2-5.4,3.4-8.3,4.2
				c-2.8,0.8-7.1,1.2-12.9,1.2H135.1z M147.3,90.6h10.1c5.8,0,10-1.5,12.7-4.5c2.6-2.8,3.9-7.6,3.9-14.6c0-6.7-1.2-11.6-3.7-14.8
				c-2.4-3.1-6.1-4.7-11.3-4.7h-11.6V90.6z"/>
			<path fill="#004367" d="M189.3,41.7h6.3c1.6,0,3.1,0.6,4.2,1.7c1.2,1.2,1.8,2.5,1.8,4.2v3.6h-12.3V41.7z M189.3,55.2h6.3
				c1.6,0,3.1,0.6,4.2,1.7c1.2,1.2,1.8,2.5,1.8,4.2v40.3h-12.3V55.2z"/>
			<path fill="#004367" d="M204.7,86.1h12c0.1,2.3,1,4,2.6,5.2c1.8,1.2,4.1,1.7,7.1,1.7c2.1,0,3.9-0.4,5.5-1.2
				c1.4-0.8,2.1-1.9,2.1-3.3c0-2.1-2.5-3.6-7.4-4.7c-2.1-0.4-3.7-0.7-4.8-1c-6.2-1.5-10.4-3.3-12.5-5.4c-2.4-2.1-3.5-4.9-3.5-8.3
				c0-4.4,1.7-8,5.1-10.9c3.5-2.7,8.1-4,13.8-4c6.1,0,11,1.3,14.6,4c3.4,2.9,5.2,6.7,5.5,11.3h-7.6c-2.2,0-3.9-1-5.1-3
				c-0.5-0.5-0.9-0.9-1.4-1.4c-1.4-1-3.4-1.6-5.8-1.6c-2.4,0-4.1,0.4-5.3,1c-1.1,0.7-1.6,1.7-1.6,3.1c0,1.9,3.1,3.4,9.2,4.7
				c0.7,0.2,1.3,0.4,1.9,0.5c0.5,0.1,1,0.2,1.5,0.2c6,1.5,10.2,3.2,12.5,5.2c2.2,2.1,3.4,4.9,3.4,8.3c0,5.1-1.9,9-5.6,11.8
				c-3.5,2.5-8.8,3.8-15.9,3.8c-6.7,0-11.7-1.3-15-4c-3.4-2.7-5.1-6.5-5.1-11.6V86.1z"/>
			<path fill="#004367" d="M281.7,87.1h8.8c-1.3,4.9-3.8,8.6-7.4,11.1c-3.6,2.7-8.2,4-13.8,4c-6.7,0-11.9-2.1-15.7-6.4
				c-3.8-4.2-5.7-10.1-5.7-17.9c0-7.4,1.8-13.2,5.5-17.4c3.8-4.3,9-6.4,15.7-6.4c7.1,0,12.5,2.1,16.4,6.2c3.8,4.3,5.6,10.2,5.6,17.9
				c0,0.5,0,0.9,0,1.2c0,0.3,0,0.6,0,0.7c0,0.6-0.1,1-0.2,1.2h-30.5c0.1,3.6,1,6.2,2.6,8c1.5,1.9,3.8,2.8,6.9,2.8
				c2,0,3.7-0.4,5.1-1.2c0.4-0.1,0.7-0.3,1-0.6c0.3-0.3,0.6-0.6,1-1c0.1-0.4,0.6-0.8,1.3-1.4C279.2,87.4,280.3,87.1,281.7,87.1z
				 M260.6,73.6h18c-0.2-3.1-1.1-5.4-2.5-6.9c-1.5-1.6-3.7-2.4-6.5-2.4c-2.6,0-4.7,0.8-6.4,2.4C261.6,68.3,260.7,70.6,260.6,73.6z"
				/>
			<path fill="#004367" d="M335,101.1h-6.2c-1.8,0-3.2-0.6-4.3-1.7c-1.1-1.1-1.7-2.5-1.7-4.3V71.6c0-2.8-0.9-4.8-2.6-6.1
				c-1.7-1.3-3.6-1.9-5.7-1.9c-2.1,0-4,0.6-5.7,1.9c-1.6,1.3-2.5,3.3-2.5,6.1v29.5H294V74c0-7.9,2.1-13.1,6.3-15.8
				c4.2-2.7,8.8-4.1,13.8-4.3c5.2,0,9.9,1.3,14.3,4c4.3,2.7,6.5,8,6.5,16.1V101.1z M303.6,50.9v-4.7c0-1.7,0.9-3.1,2.8-4
				c1.4-0.5,3-0.4,4.8,0.2c1.8,0.6,3.5,1.2,5.2,1.7c1.7,0.6,3.4,0.9,4.9,1c1.6,0.1,3-0.6,4.3-2.1c0,2.2-0.1,4-0.3,5.4
				c-0.2,1.4-1.2,2.3-3.1,2.6c-1.6,0.3-3.4,0.2-5.1-0.5c-1.8-0.7-3.5-1.3-5.1-1.9c-1.6-0.6-3.2-0.8-4.8-0.7
				C305.7,48.1,304.5,49.1,303.6,50.9z"/>
			<path fill="#004367" d="M343.9,97.2c-2.5-2.1-4.2-4.9-5.3-8.4c-1.1-3.5-1.6-7.2-1.6-11c0-3.1,0.4-6.2,1.3-9.4
				c0.9-3.1,2.3-5.7,4.2-7.8c3-3.5,7-5.5,11.8-6.2c4.8-0.6,9.2-0.3,13.1,1.1c4.5,1.7,7.8,4.7,9.9,9c2,3.8,3,8.3,3,13.4
				c0,3.7-0.4,6.9-1.2,9.6c-0.8,2.7-1.9,4.9-3.2,6.8c-2.8,3.8-6.4,6.2-10.8,7.1c-3.9,1-7.8,1.1-11.7,0.3
				C349.4,100.8,346.3,99.3,343.9,97.2z M352.4,66.7c-2.5,2.7-3.6,6.6-3.4,11.9c0.2,5.3,1.2,8.9,3,11c0.7,0.9,1.9,1.7,3.7,2.3
				c1.8,0.6,3.6,0.7,5.4,0.2s3.4-1.8,4.9-3.9c1.4-2.1,2.2-5.4,2.3-10.1c0-4.2-0.7-7.3-2-9.4c-1.3-2.1-2.9-3.4-4.7-4
				c-1.8-0.6-3.5-0.6-5.3-0.1C354.5,65.2,353.2,65.9,352.4,66.7z"/>
			<path fill="#004367" d="M406.1,117.7v-9.6h3.4c2.3,0,4.2-0.6,5.6-1.6c1.3-1.1,1.6-2.9,0.8-5.3l-16.4-46H413l9.5,32.6l8.3-28.5
				c0.7-2.8,2.6-4.2,5.6-4.2h8.5l-18,52.6c-1.4,3.8-3.2,6.5-5.3,8.2c-2.1,1.4-5.6,2.1-10.4,2.1c-0.4,0-0.8,0-1.2,0s-0.9,0-1.2,0
				c-0.4-0.1-0.8-0.2-1.3-0.3C406.9,117.7,406.5,117.7,406.1,117.7z"/>
			<path fill="#004367" d="M479.3,112.5c0,1.6-0.6,3-1.8,4.2c-1.2,1.2-2.6,1.7-4.2,1.7h-6V75.2c0-8.1,2.4-13.6,7.2-16.6
				c4.8-2.9,10.1-4.4,15.7-4.4c2.9,0,5.9,0.6,8.9,1.6c3,1.1,5.4,2.7,7.1,4.8c3.5,4.5,5.3,10.3,5.3,17.4c0,7.3-1.8,13.2-5.3,17.7
				c-3.5,4.4-8.1,6.6-13.6,6.6c-2.9,0-5.5-0.5-7.8-1.6c-2.4-1.2-4.2-3-5.6-5.4V112.5z M499.4,78.5c0-4.5-0.9-8-2.6-10.4
				c-1.8-2.4-4.3-3.6-7.6-3.6c-3.2,0-5.6,1.2-7.4,3.6c-1.6,2.2-2.5,5.7-2.5,10.4c0,4.4,0.9,7.7,2.6,9.9c1.8,2.4,4.3,3.6,7.6,3.6
				c3.1,0,5.5-1.2,7.2-3.6C498.5,85.9,499.4,82.6,499.4,78.5z"/>
			<path fill="#004367" d="M544.7,99.5c-2.5,1.3-5.1,2.1-7.8,2.3c-2.8,0.3-5.2,0.4-7.3,0.4c-4.2,0-7.9-1.1-11.1-3.4
				c-3.2-2.3-4.8-6-4.8-11.2c0-4.9,1.4-8.3,4.3-10.4c2.9-2.1,6.6-3.5,11-4.2c0.6,0,1.3-0.1,2.1-0.3c0.8-0.2,1.8-0.3,2.8-0.4
				c5.2-0.7,7.8-2.2,7.8-4.5c0-1.7-0.9-2.9-2.7-3.4c-1.8-0.5-3.5-0.8-5-0.8c-1.7,0-3.1,0.2-4.4,0.7c-1.3,0.5-2.2,1.3-2.8,2.6h-11.8
				c0.5-3.6,2.1-6.5,4.9-8.9c3.2-2.7,7.7-4,13.6-4c6.6,0,11.5,1.1,14.8,3.3c3.4,2.3,5.1,5.6,5.1,9.7V83c0,4.6-0.9,8.2-2.6,10.9
				C549.1,96.4,547.1,98.3,544.7,99.5z M541.9,78.1c-1.7,0.8-3.9,1.6-6.9,2.3l-4.1,0.9c-2.1,0.6-3.6,1.3-4.6,2.3
				c-0.8,1.3-1.2,2.5-1.2,3.8c0,1.7,0.5,3.1,1.6,4.2c1.1,0.9,2.6,1.4,4.6,1.4c3.3,0,5.9-0.9,7.8-2.8c1.9-1.9,2.8-4.4,2.8-7.6V78.1z"
				/>
			<path fill="#004367" d="M554.8,86.1h12c0.1,2.3,1,4,2.6,5.2c1.8,1.2,4.1,1.7,7.1,1.7c2.1,0,3.9-0.4,5.5-1.2
				c1.4-0.8,2.1-1.9,2.1-3.3c0-2.1-2.5-3.6-7.4-4.7c-2.1-0.4-3.7-0.7-4.8-1c-6.2-1.5-10.4-3.3-12.5-5.4c-2.4-2.1-3.5-4.9-3.5-8.3
				c0-4.4,1.7-8,5.1-10.9c3.5-2.7,8.1-4,13.8-4c6.1,0,11,1.3,14.6,4c3.4,2.9,5.2,6.7,5.5,11.3h-7.6c-2.2,0-3.9-1-5.1-3
				c-0.5-0.5-0.9-0.9-1.4-1.4c-1.4-1-3.4-1.6-5.8-1.6c-2.4,0-4.1,0.4-5.3,1c-1.1,0.7-1.6,1.7-1.6,3.1c0,1.9,3.1,3.4,9.2,4.7
				c0.7,0.2,1.3,0.4,1.9,0.5c0.5,0.1,1,0.2,1.5,0.2c6,1.5,10.2,3.2,12.5,5.2c2.2,2.1,3.4,4.9,3.4,8.3c0,5.1-1.9,9-5.6,11.8
				c-3.5,2.5-8.8,3.8-15.9,3.8c-6.7,0-11.7-1.3-15-4c-3.4-2.7-5.1-6.5-5.1-11.6V86.1z"/>
			<path fill="#004367" d="M599.5,41.7h6.3c1.6,0,3.1,0.6,4.2,1.7c1.2,1.2,1.8,2.5,1.8,4.2v3.6h-12.3V41.7z M599.5,55.2h6.3
				c1.6,0,3.1,0.6,4.2,1.7c1.2,1.2,1.8,2.5,1.8,4.2v40.3h-12.3V55.2z"/>
			<path fill="#004367" d="M623.2,97.6c-2.5-2.1-4.2-4.9-5.3-8.4c-1.1-3.5-1.6-7.2-1.6-11c0-3.1,0.4-6.2,1.3-9.4
				c0.9-3.1,2.3-5.7,4.2-7.8c3-3.5,7-5.5,11.8-6.2c4.8-0.6,9.2-0.3,13.1,1.1c4.5,1.7,7.8,4.7,9.9,9c2,3.8,3,8.3,3,13.4
				c0,3.7-0.4,6.9-1.2,9.6c-0.8,2.7-1.9,5-3.2,6.9c-2.9,3.8-6.5,6.1-10.8,6.9c-3.9,1-7.8,1.1-11.7,0.3
				C628.7,101.1,625.6,99.7,623.2,97.6z M631.7,67c-2.5,2.7-3.6,6.6-3.4,11.9c0.2,5.3,1.2,8.9,3,11c0.7,0.9,1.9,1.7,3.7,2.3
				c1.8,0.6,3.6,0.7,5.4,0.2c1.8-0.5,3.4-1.8,4.9-3.9c1.4-2.1,2.2-5.4,2.3-10.1c0-4.2-0.7-7.3-2-9.4c-1.3-2.1-2.9-3.4-4.7-4
				c-1.8-0.6-3.5-0.6-5.3-0.1S632.5,66.2,631.7,67z M650.4,40.4l-10.8,10.9h-5.8l4.9-8.9c0.2-0.4,0.6-0.8,1.2-1.3
				c0.6-0.5,1.4-0.8,2.5-0.8H650.4z"/>
			<path fill="#004367" d="M703.6,101.7h-6.2c-1.8,0-3.2-0.6-4.3-1.7c-1.1-1.1-1.7-2.5-1.7-4.3V72.2c0-2.8-0.9-4.8-2.6-6.1
				c-1.7-1.3-3.6-1.9-5.7-1.9c-2.1,0-4,0.6-5.7,1.9c-1.6,1.3-2.5,3.3-2.5,6.1v29.5h-12.3V74.6c0-7.9,2.1-13.1,6.3-15.8
				c4.2-2.7,8.8-4.1,13.8-4.3c5.2,0,9.9,1.3,14.3,4c4.3,2.7,6.5,8,6.5,16.1V101.7z"/>
		</g>
	</g>
</g>
</svg>
